<svg xmlns="http://www.w3.org/2000/svg" viewBox="0 0 100 100" width="100" height="100">
  <defs>
    <filter id="g" x="-40%" y="-40%" width="180%" height="180%">
      <feGaussianBlur stdDeviation="2.4" result="b" />
      <feMerge><feMergeNode in="b" /><feMergeNode in="SourceGraphic" /></feMerge>
    </filter>
  </defs>
  <rect width="100" height="100" rx="20" fill="#060807" />
  <path d="M 50.00 56.60 L 53.25 56.48 L 56.47 56.13 L 59.63 55.54 L 62.69 54.72 L 65.64 53.69 L 68.45 52.46 L 71.09 51.04 L 73.53 49.45 L 75.75 47.71 L 77.74 45.84 L 79.48 43.86 L 80.94 41.80 L 82.13 39.68 L 83.04 37.54 L 83.64 35.39 L 83.96 33.26 L 83.97 31.18 L 83.69 29.19 L 83.13 27.30 L 82.29 25.53 L 81.18 23.92 L 79.82 22.49 L 78.23 21.25 L 76.43 20.22 L 74.43 19.43 L 72.27 18.88 L 69.96 18.59 L 67.53 18.56 L 65.01 18.80 L 62.43 19.32 L 59.81 20.10 L 57.19 21.16 L 54.59 22.48 L 52.05 24.05 L 49.58 25.86 L 47.21 27.91 L 44.97 30.16 L 42.88 32.60 L 40.96 35.21 L 39.24 37.96 L 37.72 40.83 L 36.42 43.80 L 35.35 46.83 L 34.52 49.89 L 33.93 52.96 L 33.60 56.01 L 33.51 59.00 L 33.67 61.91 L 34.06 64.71 L 34.69 67.36 L 35.53 69.86 L 36.58 72.16 L 37.82 74.25 L 39.23 76.10 L 40.79 77.70 L 42.47 79.04 L 44.26 80.09 L 46.13 80.85 L 48.05 81.30 L 50.00 81.46 L 51.95 81.30 L 53.87 80.85 L 55.74 80.09 L 57.53 79.04 L 59.21 77.70 L 60.77 76.10 L 62.18 74.25 L 63.42 72.16 L 64.47 69.86 L 65.31 67.36 L 65.94 64.71 L 66.33 61.91 L 66.49 59.00 L 66.40 56.01 L 66.07 52.96 L 65.48 49.89 L 64.65 46.83 L 63.58 43.80 L 62.28 40.83 L 60.76 37.96 L 59.04 35.21 L 57.12 32.60 L 55.03 30.16 L 52.79 27.91 L 50.42 25.86 L 47.95 24.05 L 45.41 22.48 L 42.81 21.16 L 40.19 20.10 L 37.57 19.32 L 34.99 18.80 L 32.47 18.56 L 30.04 18.59 L 27.73 18.88 L 25.57 19.43 L 23.57 20.22 L 21.77 21.25 L 20.18 22.49 L 18.82 23.92 L 17.71 25.53 L 16.87 27.30 L 16.31 29.19 L 16.03 31.18 L 16.04 33.26 L 16.36 35.39 L 16.96 37.54 L 17.87 39.68 L 19.06 41.80 L 20.52 43.86 L 22.26 45.84 L 24.25 47.71 L 26.47 49.45 L 28.91 51.04 L 31.55 52.46 L 34.36 53.69 L 37.31 54.72 L 40.37 55.54 L 43.53 56.13 L 46.75 56.48 L 50.00 56.60 Z"
    fill="none" stroke="#57f08b" stroke-width="6" stroke-linejoin="round" stroke-linecap="round" filter="url(#g)" />
</svg>
